<?xml version="1.0" standalone="no"?>
<!DOCTYPE svg PUBLIC "-//W3C//DTD SVG 20010904//EN"
 "http://www.w3.org/TR/2001/REC-SVG-20010904/DTD/svg10.dtd">
<svg version="1.0" xmlns="http://www.w3.org/2000/svg"
 width="300.000000pt" height="184.000000pt" viewBox="0 0 300.000000 184.000000"
 preserveAspectRatio="xMidYMid meet">
<metadata>
Created by potrace 1.10, written by Peter Selinger 2001-2011
</metadata>
<g transform="translate(0.000000,184.000000) scale(0.100000,-0.100000)"
fill="#000000" stroke="none">
<path d="M1448 1491 c-27 -30 -30 -40 -26 -83 5 -47 3 -50 -27 -48 -3 1 -13
-6 -21 -15 -9 -8 -21 -15 -28 -15 -56 0 -198 -124 -241 -210 -52 -105 -73
-221 -46 -254 10 -12 32 -16 89 -16 41 0 73 -2 71 -4 -2 -2 -60 -7 -129 -11
-69 -3 -129 -11 -134 -16 -21 -19 15 -31 105 -34 52 -2 159 -7 239 -10 197 -7
657 -7 700 0 71 13 80 16 80 30 0 21 -48 34 -130 35 -30 1 -40 4 -31 9 8 5 21
7 29 3 13 -4 14 4 8 58 -28 249 -262 436 -498 399 -73 -11 -166 -53 -223 -98
-80 -65 -155 -202 -155 -284 l0 -38 288 6 c158 3 355 2 437 -2 l150 -8 -130
-7 c-149 -8 -732 -8 -752 -1 -32 13 5 156 65 249 74 114 198 196 316 210 46 6
56 10 56 25 0 15 -8 19 -36 19 l-37 0 6 41 c7 56 32 81 75 77 42 -4 76 -43 69
-79 -4 -23 -4 -22 -16 9 -13 32 -41 47 -78 40 -17 -3 -42 -52 -31 -63 3 -3 35
-9 71 -13 l67 -8 6 32 c4 25 0 43 -16 69 -35 57 -95 60 -142 6z m95 -64 c4
-10 -2 -13 -19 -9 -13 2 -24 8 -24 13 0 14 37 10 43 -4z m85 -157 c2 -5 12
-10 23 -10 10 0 19 -4 19 -8 0 -4 10 -9 22 -9 13 -1 24 -7 26 -13 2 -5 10 -10
17 -10 40 0 198 -210 180 -240 -3 -6 -1 -10 4 -10 6 0 11 -14 11 -30 l0 -31
-82 6 c-105 8 -510 7 -645 -1 l-103 -6 0 34 c0 49 52 147 109 204 59 60 83 80
93 77 5 -2 8 1 8 6 0 5 8 11 18 15 9 3 42 15 72 26 44 16 71 19 140 15 47 -2
86 -9 88 -15z m-371 -426 c-3 -3 -12 -4 -19 -1 -8 3 -5 6 6 6 11 1 17 -2 13
-5z m773 -33 c36 -5 17 -8 -90 -14 -170 -8 -980 3 -980 15 0 10 1006 10 1070
-1z"/>
<path d="M1527 1360 c4 -16 14 -20 43 -20 60 0 161 -46 237 -108 89 -72 163
-223 163 -334 0 -30 4 -47 10 -43 19 11 10 110 -15 185 -30 89 -61 135 -132
201 -51 45 -184 119 -217 119 -8 0 -18 5 -21 10 -3 6 -21 10 -40 10 -28 0 -32
-3 -28 -20z"/>
<path d="M1186 621 c-9 -9 -16 -25 -16 -33 0 -13 -9 -15 -46 -10 -25 2 -55 0
-67 -7 -17 -8 -31 -8 -61 3 -24 8 -50 11 -66 6 -21 -6 -31 -3 -49 16 -31 32
-90 33 -126 1 -20 -16 -28 -35 -32 -68 -4 -38 -1 -50 21 -76 32 -38 77 -48
121 -27 29 13 36 14 57 1 27 -16 59 -15 93 3 18 10 28 10 38 2 19 -16 68 -18
94 -4 18 10 27 10 43 0 16 -10 24 -10 40 -1 12 8 21 9 25 3 4 -6 49 -9 110 -6
57 2 106 -1 107 -5 2 -5 15 -2 30 5 15 8 29 12 32 9 14 -14 87 -20 103 -7 13
8 22 9 30 2 15 -12 107 -18 124 -8 6 4 27 4 48 -1 26 -6 42 -4 59 7 19 12 25
13 45 0 12 -7 31 -12 42 -10 11 2 46 4 78 5 52 1 59 3 69 25 l12 25 23 -26
c18 -18 34 -25 62 -25 46 0 69 23 78 73 5 31 1 40 -24 66 -27 27 -34 29 -68
21 -21 -5 -58 -5 -82 -1 -25 5 -46 5 -49 -1 -3 -5 -20 -6 -39 -2 -19 3 -35 1
-39 -5 -5 -7 -13 -8 -25 -2 -10 6 -33 9 -52 9 -19 -1 -46 1 -60 4 -15 4 -38 0
-53 -7 -22 -12 -30 -11 -57 2 -27 14 -35 14 -68 1 -31 -12 -41 -13 -55 -2 -16
11 -45 11 -87 -2 -10 -3 -20 5 -27 21 -14 31 -53 34 -82 5 -20 -20 -20 -20
-40 0 -27 27 -65 26 -84 -2 -9 -12 -16 -19 -16 -15 0 3 -11 2 -24 -3 -21 -8
-25 -5 -30 15 -9 36 -39 49 -60 26z m34 -67 l0 -56 26 31 c14 17 35 31 47 31
20 0 20 0 -2 -24 l-23 -25 22 -35 c21 -35 21 -36 2 -36 -11 0 -24 11 -31 26
-9 21 -14 24 -26 14 -8 -7 -15 -19 -15 -26 0 -8 -7 -14 -15 -14 -12 0 -15 16
-15 85 0 69 3 85 15 85 12 0 15 -13 15 -56z m-359 26 c20 -17 22 -21 9 -29
-10 -7 -17 -6 -23 4 -10 18 -39 19 -55 3 -7 -7 -12 -27 -12 -45 0 -42 32 -63
59 -39 22 20 41 21 41 1 0 -19 -31 -35 -68 -35 -40 0 -67 32 -67 82 0 68 65
101 116 58z m539 -37 c18 -61 30 -76 31 -42 1 49 24 94 48 94 22 0 23 -4 24
-78 2 -69 0 -77 -17 -77 -17 0 -18 6 -12 60 4 33 5 60 2 60 -3 0 -13 -27 -23
-60 -12 -42 -22 -60 -34 -60 -11 0 -21 18 -33 60 -9 33 -20 60 -23 60 -3 0 -3
-27 -1 -60 4 -53 2 -60 -14 -60 -16 0 -18 9 -18 81 l0 80 27 -3 c23 -3 30 -11
43 -55z m-398 0 c22 -20 24 -66 2 -87 -35 -36 -104 -7 -104 42 0 54 62 81 102
45z m142 1 c20 -20 20 -68 0 -88 -36 -36 -104 -6 -104 46 0 46 72 75 104 42z
m488 -1 c10 -9 18 -24 18 -35 0 -15 -8 -18 -47 -18 -45 0 -46 -1 -30 -17 13
-14 21 -15 35 -7 9 6 23 9 30 6 24 -8 -8 -32 -43 -32 -39 0 -58 20 -58 60 0
16 5 36 13 44 16 21 59 20 82 -1z m126 5 c7 -7 12 -27 12 -44 0 -18 5 -36 10
-39 24 -15 6 -24 -47 -22 -51 2 -58 5 -61 24 -2 17 5 24 32 34 20 7 36 16 36
20 0 16 -20 19 -39 7 -25 -15 -39 -4 -21 17 15 18 61 20 78 3z m141 -2 c16
-19 -4 -32 -24 -16 -8 6 -19 9 -25 5 -18 -11 -11 -22 20 -29 59 -11 46 -66
-15 -66 -18 0 -38 6 -44 14 -17 20 3 30 28 14 16 -10 23 -10 33 0 9 9 5 13
-20 18 -41 8 -58 36 -36 58 19 20 68 21 83 2z m73 -33 c2 -35 7 -48 18 -48 11
0 16 13 18 48 3 39 6 47 23 47 17 0 19 -7 19 -58 l0 -59 -50 -1 c-58 -1 -70
12 -70 77 0 34 3 41 19 41 17 0 20 -8 23 -47z m138 35 c0 -9 3 -9 12 0 17 17
38 15 38 -3 0 -8 -9 -15 -19 -15 -21 0 -31 -19 -31 -61 0 -19 -5 -29 -15 -29
-12 0 -15 13 -15 60 0 47 3 60 15 60 8 0 15 -5 15 -12z m158 0 c5 -7 13 -23
16 -35 7 -22 4 -23 -38 -23 -25 0 -46 -4 -46 -9 0 -14 29 -22 56 -15 26 7 34
-10 8 -20 -68 -26 -124 44 -77 96 18 21 66 24 81 6z m-1428 -18 c13 -8 12 -11
-5 -24 -18 -13 -21 -13 -26 2 -11 30 3 40 31 22z"/>
<path d="M938 515 c-9 -21 -9 -29 5 -42 13 -13 19 -14 31 -3 19 15 21 41 4 58
-18 18 -27 15 -40 -13z"/>
<path d="M1084 526 c-11 -29 0 -61 21 -61 15 0 21 8 23 29 5 38 -32 64 -44 32z"/>
<path d="M1570 525 c-11 -13 -8 -15 20 -15 28 0 31 2 20 15 -7 8 -16 15 -20
15 -4 0 -13 -7 -20 -15z"/>
<path d="M1705 479 c-4 -6 -4 -13 -1 -16 8 -8 36 5 36 17 0 13 -27 13 -35 -1z"/>
<path d="M2210 525 c-11 -13 -8 -15 20 -15 28 0 31 2 20 15 -7 8 -16 15 -20
15 -4 0 -13 -7 -20 -15z"/>
<path d="M451 339 c-53 -20 -67 -80 -28 -117 24 -22 71 -30 81 -13 7 10 46 3
46 -9 0 -9 49 0 55 10 3 5 21 3 41 -3 27 -8 40 -8 56 2 13 8 23 9 32 2 7 -6
17 -6 26 -1 8 5 18 6 23 3 17 -10 182 -12 194 -1 16 13 6 68 -18 93 -17 17
-22 18 -55 6 -28 -10 -38 -10 -44 -1 -8 14 -58 11 -79 -5 -11 -7 -13 -7 -8 2
4 6 0 19 -10 28 -16 16 -18 16 -34 -3 -11 -14 -23 -19 -38 -15 -11 3 -32 -2
-45 -10 -21 -14 -25 -14 -39 0 -13 14 -23 15 -51 6 -27 -8 -36 -8 -40 2 -8 23
-39 33 -65 24z m309 -19 c0 -5 -7 -10 -16 -10 -8 0 -12 5 -9 10 3 6 10 10 16
10 5 0 9 -4 9 -10z m-260 -15 c15 -18 -1 -20 -18 -3 -14 14 -42 -6 -42 -32 0
-28 27 -45 45 -30 9 7 18 11 20 8 12 -12 -26 -30 -50 -24 -48 12 -41 96 9 96
13 0 29 -7 36 -15z m104 -27 c15 -25 -4 -53 -35 -53 -19 0 -25 6 -27 29 -5 45
38 61 62 24z m90 16 c26 -10 18 -25 -9 -18 -20 5 -25 2 -25 -13 0 -27 10 -35
27 -21 16 13 31 2 16 -13 -6 -6 -21 -9 -34 -7 -27 3 -38 40 -19 64 14 16 21
17 44 8z m66 -40 c0 -19 -4 -34 -10 -34 -5 0 -10 18 -10 41 0 24 4 38 10 34 6
-3 10 -22 10 -41z m98 4 c2 -22 -1 -38 -7 -38 -6 0 -11 14 -11 30 0 20 -5 30
-15 30 -10 0 -15 -10 -15 -30 0 -16 -4 -30 -10 -30 -5 0 -10 17 -10 39 0 36 1
38 33 37 30 -1 32 -4 35 -38z m89 30 c6 -7 13 -26 15 -41 5 -27 4 -28 -30 -25
-45 4 -51 22 -15 43 l28 16 -29 -6 c-26 -6 -28 -4 -17 9 16 19 35 20 48 4z"/>
<path d="M553 264 c-7 -18 11 -39 26 -30 17 11 13 46 -4 46 -9 0 -18 -7 -22
-16z"/>
<path d="M910 240 c0 -5 4 -10 9 -10 6 0 13 5 16 10 3 6 -1 10 -9 10 -9 0 -16
-4 -16 -10z"/>
<path d="M1040 330 c-13 -24 -13 -86 -1 -109 8 -14 23 -18 70 -18 67 -1 87 9
96 49 5 19 1 32 -14 47 -22 22 -65 28 -76 11 -10 -17 -25 -11 -25 9 0 26 -38
34 -50 11z m30 -44 c0 -26 5 -46 13 -49 6 -2 9 -8 5 -12 -4 -4 -14 -5 -23 -2
-17 7 -22 107 -5 107 6 0 10 -20 10 -44z m110 -6 c22 -40 -26 -80 -58 -48 -25
25 -6 68 30 68 9 0 22 -9 28 -20z"/>
<path d="M1132 258 c2 -12 10 -23 18 -23 22 0 19 39 -3 43 -15 3 -18 -1 -15
-20z"/>
<path d="M1270 336 c-6 -8 -13 -36 -15 -63 -1 -26 -4 -56 -6 -66 -2 -11 5 -25
17 -33 20 -14 23 -13 41 17 13 19 23 27 27 20 9 -13 55 -14 75 -2 9 6 21 5 31
-1 10 -7 28 -8 46 -3 16 5 34 7 39 5 6 -2 38 -4 73 -6 52 -3 66 0 82 16 25 25
25 41 -1 75 -19 23 -27 26 -55 20 -23 -4 -41 -1 -57 10 -22 14 -26 14 -37 0
-9 -11 -23 -13 -50 -9 -21 4 -40 2 -44 -4 -3 -5 -29 -8 -58 -7 -29 2 -47 1
-40 -2 6 -2 12 -18 12 -33 0 -16 4 -31 9 -34 13 -8 34 21 28 39 -4 8 -2 17 3
20 6 4 10 -10 10 -32 0 -36 -2 -39 -29 -41 -32 -2 -34 1 -46 70 -7 43 -36 66
-55 44z m30 -16 c0 -5 -4 -10 -10 -10 -5 0 -10 5 -10 10 0 6 5 10 10 10 6 0
10 -4 10 -10z m266 -20 c8 0 14 -4 14 -10 0 -5 -7 -10 -15 -10 -8 0 -15 -9
-15 -20 0 -11 7 -20 15 -20 8 0 15 -4 15 -10 0 -5 -9 -10 -20 -10 -15 0 -20 7
-20 29 0 16 -5 31 -12 33 -9 3 -8 9 2 20 8 9 17 12 18 7 2 -5 10 -9 18 -9z
m-266 -50 c0 -36 -4 -52 -15 -57 -9 -3 -19 -2 -23 2 -4 4 -1 10 6 12 7 3 12
23 12 49 0 24 5 44 10 44 6 0 10 -23 10 -50z m184 44 c27 -10 18 -25 -11 -19
l-28 6 28 -16 c16 -9 26 -22 24 -28 -5 -17 -47 -21 -61 -7 -8 10 -5 11 17 6
16 -4 27 -2 27 4 0 5 -6 10 -14 10 -22 0 -38 24 -24 38 14 14 20 14 42 6z
m186 -14 c22 -40 -26 -80 -58 -48 -25 25 -6 68 30 68 9 0 22 -9 28 -20z"/>
<path d="M1622 258 c2 -13 10 -23 18 -23 8 0 16 10 18 23 3 17 -2 22 -18 22
-16 0 -21 -5 -18 -22z"/>
<path d="M1920 322 c-18 -14 -21 -24 -15 -53 11 -56 18 -62 87 -65 94 -5 100
-1 96 54 -3 44 -5 47 -30 47 -15 1 -30 4 -34 7 -3 4 -12 4 -20 1 -8 -3 -25 2
-38 11 -23 14 -26 14 -46 -2z m30 -12 c0 -5 7 -10 15 -10 8 0 15 -4 15 -10 0
-5 -7 -10 -15 -10 -9 0 -15 -10 -15 -26 0 -14 4 -23 10 -19 6 3 10 1 10 -5 0
-6 -8 -10 -17 -8 -28 5 -39 98 -12 98 5 0 9 -4 9 -10z m70 -46 c0 -45 24 -42
28 4 5 46 22 39 22 -9 0 -39 -1 -40 -32 -37 -30 3 -33 6 -36 41 -2 21 1 37 7
37 6 0 11 -16 11 -36z"/>
<path d="M2184 316 c-29 -13 -32 -19 -35 -66 -3 -38 0 -55 12 -66 22 -20 63
-18 82 4 12 13 26 17 46 14 16 -2 38 1 49 7 14 7 23 8 27 1 8 -14 48 -13 63 2
9 9 18 8 37 -2 20 -11 31 -11 44 -3 11 7 23 8 32 2 42 -27 98 15 85 64 -8 33
-49 53 -80 39 -19 -9 -27 -8 -36 4 -16 18 -44 18 -60 -1 -9 -11 -16 -13 -24
-5 -11 11 -49 14 -59 3 -15 -14 -84 -9 -137 11 -8 3 -29 -1 -46 -8z m312 -16
c8 0 14 -4 14 -10 0 -5 -7 -10 -16 -10 -10 0 -14 -7 -12 -22 2 -13 9 -22 16
-21 6 2 12 -2 12 -7 0 -5 -9 -10 -20 -10 -15 0 -20 7 -20 29 0 16 -5 31 -12
33 -9 3 -8 9 2 20 8 9 17 12 18 7 2 -5 10 -9 18 -9z m-256 6 c0 -24 -23 -56
-40 -56 -11 0 -20 -4 -20 -10 0 -5 14 -10 30 -10 19 0 30 -5 30 -14 0 -15 -21
-26 -51 -26 -17 0 -19 6 -17 52 3 46 6 53 28 59 32 9 40 10 40 5z m40 -35 c0
-52 35 -49 43 4 3 25 4 24 6 -10 1 -37 -1 -41 -26 -43 -15 -1 -30 4 -35 10
-11 18 -10 68 2 68 6 0 10 -13 10 -29z m148 11 c3 -9 -4 -11 -25 -7 l-28 6 28
-16 c16 -9 26 -22 24 -28 -5 -17 -47 -21 -61 -7 -8 10 -5 11 17 6 16 -4 27 -2
27 4 0 5 -6 10 -14 10 -19 0 -29 17 -22 36 7 18 47 15 54 -4z m174 -7 c8 -19
8 -28 -2 -40 -23 -28 -70 -12 -70 25 0 42 54 54 72 15z"/>
<path d="M2188 268 c9 -9 15 -9 24 0 9 9 7 12 -12 12 -19 0 -21 -3 -12 -12z"/>
<path d="M2185 210 c3 -5 13 -10 21 -10 8 0 14 5 14 10 0 6 -9 10 -21 10 -11
0 -17 -4 -14 -10z"/>
<path d="M2552 258 c2 -13 10 -23 18 -23 8 0 16 10 18 23 3 17 -2 22 -18 22
-16 0 -21 -5 -18 -22z"/>
<path d="M1768 306 c-11 -8 -18 -27 -18 -49 0 -46 27 -67 73 -58 31 7 32 9 29
52 -4 62 -42 87 -84 55z m63 -48 c5 -35 5 -36 -24 -35 -40 3 -45 22 -10 42
l28 16 -27 -4 c-27 -4 -35 2 -21 17 4 4 16 6 27 4 15 -2 22 -13 27 -40z"/>
<path d="M1788 238 c9 -9 15 -9 24 0 9 9 7 12 -12 12 -19 0 -21 -3 -12 -12z"/>
</g>
</svg>
